PathFileType	4	(X/Y/Z)	C:\Users\Basilio\Documents\Thesis Gigler\squatting_fais\c3dfiles\019\SLS_front_pre1\markers_experimental.trc
DataRate	CameraRate	NumFrames	NumMarkers	Units	OrigDataRate	OrigDataStartFrame	OrigNumFrames
200.000000	200.000000	4	59	mm	200.000000	407	1631
Frame#	Time	LBHD			RBHD			C7			T10			CLAV			LSHO			LUUPA			LMUPA			LDUPA			LLEP			LMEP			LRAD			LUL			LRFIN			RSHO			RUPA1			RMUPA			RDUPA			RLEP			RRAD			RUL			RUFIN			LASI			RASI			USACR			LSACR			RSACR			LTHI1			LTHI2			LTHI3			LTHI4			LLFC			LTIB1			LTIB2			LTIB3			LTIB4			LLMAL			LMMAL			LHEE			LMT1			LMT2			LMT5			RTHI			RTHI3			RTHI4			RLFC			RTIB1			RTIB2			RTIB3			RTIB4			RLMAL			RMMAL			RHEE			RMT1			RMT2			RMT5			FHD			RTHI2			RMEP			
		X1	Y1	Z1	X2	Y2	Z2	X3	Y3	Z3	X4	Y4	Z4	X5	Y5	Z5	X6	Y6	Z6	X7	Y7	Z7	X8	Y8	Z8	X9	Y9	Z9	X10	Y10	Z10	X11	Y11	Z11	X12	Y12	Z12	X13	Y13	Z13	X14	Y14	Z14	X15	Y15	Z15	X16	Y16	Z16	X17	Y17	Z17	X18	Y18	Z18	X19	Y19	Z19	X20	Y20	Z20	X21	Y21	Z21	X22	Y22	Z22	X23	Y23	Z23	X24	Y24	Z24	X25	Y25	Z25	X26	Y26	Z26	X27	Y27	Z27	X28	Y28	Z28	X29	Y29	Z29	X30	Y30	Z30	X31	Y31	Z31	X32	Y32	Z32	X33	Y33	Z33	X34	Y34	Z34	X35	Y35	Z35	X36	Y36	Z36	X37	Y37	Z37	X38	Y38	Z38	X39	Y39	Z39	X40	Y40	Z40	X41	Y41	Z41	X42	Y42	Z42	X43	Y43	Z43	X44	Y44	Z44	X45	Y45	Z45	X46	Y46	Z46	X47	Y47	Z47	X48	Y48	Z48	X49	Y49	Z49	X50	Y50	Z50	X51	Y51	Z51	X52	Y52	Z52	X53	Y53	Z53	X54	Y54	Z54	X55	Y55	Z55	X56	Y56	Z56	X57	Y57	Z57	X58	Y58	Z58	X59	Y59	Z59	

408	2.035	-392.6530761718751	1685.395263671875	-797.414978027344	-398.4511718750001	1681.00048828125	-657.6970214843751	-420.7463684082032	1505.268432617188	-711.8060913085939	-459.5588378906251	1217.509033203125	-707.2723388671876	-284.3187866210938	1463.910278320313	-721.3646240234376	-349.4427185058594	1503.117919921875	-858.4737548828127	-225.1239776611329	1471.752319335938	-913.994079589844	-200.2400817871094	1465.831176757813	-872.3613891601565	-158.7056121826172	1467.81640625	-915.8325805664065	-88.4158172607422	1437.416870117188	-949.4524536132815	-90.4450149536133	1379.045166015625	-935.5054321289065	159.1455230712891	1432.73974609375	-855.106872558594	157.3656158447266	1438.518188476563	-923.7019042968752	230.0570373535157	1447.67724609375	-849.8548583984377	-327.7330322265626	1503.188354492188	-589.1193237304689	-206.545883178711	1435.158447265625	-490.1032714843751	-182.5269927978516	1461.410278320313	-523.1040649414064	-137.6900329589844	1431.67431640625	-489.4640197753907	-61.89288711547853	1430.358276367188	-501.532684326172	168.7850952148438	1445.15380859375	-600.0542602539064	185.8705749511719	1451.140014648438	-536.0814208984376	256.1887207031251	1458.736572265625	-608.4311523437501	-309.0786743164063	1017.035217285156	-834.0373535156252	-300.9502868652344	993.7009277343752	-624.3173217773439	-463.8832397460939	1083.945068359375	-714.4837646484376	-470.7333984375001	1053.834106445313	-744.8988647460939	-466.6701965332032	1050.322265625	-687.1907348632814	-296.7609863281251	786.1165771484377	-940.7749023437502	-229.6254425048829	732.7963256835939	-948.7777099609377	-190.1207122802735	753.1802368164064	-931.5296020507815	-231.3595428466797	671.2992553710939	-946.7969970703127	-205.3827056884766	581.5913696289064	-940.7033691406252	-179.0816192626953	436.3362731933595	-920.7687988281252	-250.6238403320313	411.7496337890626	-965.6168212890627	-214.7566375732422	397.6581420898439	-946.0096435546877	-232.1411132812501	319.2843627929688	-915.9576416015627	-331.4230041503907	212.9140167236329	-932.3218994140627	-304.1513671875001	212.3092346191407	-854.573425292969	-401.9770812988282	194.2574005126954	-874.8916015625002	-201.5798645019532	105.4065093994141	-886.7814941406252	-204.6727905273438	109.2784118652344	-925.242370605469	-260.9504089355469	100.672836303711	-969.5938720703127	-338.1833801269532	791.4615478515627	-561.5828857421876	-264.9734191894532	756.7680664062501	-590.7116088867189	-304.5703430175782	665.5884399414064	-575.1134643554689	-319.9841918945313	506.089569091797	-620.3258666992189	-286.5658569335938	330.6317138671876	-695.4905395507814	-348.1493530273438	249.9932708740235	-648.9251098632814	-314.0898132324219	248.4179840087891	-680.9515991210939	-325.3359069824219	213.1392364501954	-727.2257690429689	-392.6656494140626	127.8680267333985	-692.5125732421876	-373.5602111816407	141.6137390136719	-766.1238403320314	-456.7922363281251	107.1012344360352	-746.8535156250001	-257.2115478515626	60.85079956054689	-777.0310668945315	-248.0985412597657	60.00803375244142	-728.5802612304689	-291.9598083496094	46.2015609741211	-677.2145385742189	-266.8214111328126	1720.119750976563	-653.2408447265626	-289.5168457031251	748.8242797851564	-569.1057739257814	nan	nan	nan	
409	2.04	-392.488739013672	1685.42626953125	-796.7925415039065	-397.8346252441407	1680.694091796875	-657.1531982421876	-420.4197387695314	1505.254272460938	-711.2152709960939	-459.9244384765626	1217.61962890625	-706.9724121093751	-284.0157470703126	1463.6953125	-720.8852539062501	-349.1936340332032	1503.072998046875	-857.9044189453127	-225.0558166503907	1471.683715820313	-913.6889648437502	-199.9801635742188	1465.622192382813	-871.9109497070315	-158.4237976074219	1467.554809570313	-915.4260253906252	-88.21546173095705	1437.0908203125	-949.1109008789065	-90.47882080078126	1378.787841796875	-935.1479492187502	159.4194488525391	1432.011352539063	-854.9252929687502	157.3279724121094	1437.693725585938	-923.170104980469	230.2964630126954	1446.815551757813	-849.8113403320315	-327.1943054199219	1502.88232421875	-588.6007080078126	-206.2412872314454	1434.818481445313	-489.6764526367189	-182.1592864990235	1461.09912109375	-522.5614624023439	-137.2982177734375	1431.136596679688	-488.9614257812501	-61.69406890869142	1430.022583007813	-501.3585205078126	169.0386199951172	1444.614868164063	-599.9881591796876	186.1361694335938	1450.38818359375	-535.8787231445314	256.5887756347657	1458.25927734375	-608.2899169921876	-309.7535705566407	1016.969665527344	-834.0994262695315	-301.4310913085938	993.5935058593752	-624.4259033203126	-464.0357971191407	1083.8916015625	-714.4691162109376	-471.3309631347657	1053.871704101563	-744.8347778320314	-467.3504028320314	1050.323364257813	-687.1199951171876	-297.0420837402344	786.2943115234377	-941.0781250000002	-229.8881530761719	733.2132568359376	-949.190368652344	-190.4693756103516	753.7800903320314	-931.928161621094	-231.4260253906251	671.7352905273439	-947.2033691406252	-205.1356964111329	582.1272583007814	-941.0549926757815	-178.2554931640625	437.048797607422	-921.2041015625002	-249.7515258789063	412.1279907226564	-966.071228027344	-212.952621459961	398.5284729003907	-947.9764404296877	-231.3497924804688	319.9902343750001	-915.687927246094	-329.8237304687501	212.9303283691407	-932.8809814453127	-302.1688842773438	212.3520507812501	-855.0745849609377	-400.1589355468751	194.167465209961	-875.2891845703127	-203.2210693359376	109.5401306152344	-886.9335937500002	-203.8167724609376	109.5719528198242	-926.1953125000002	-259.2130126953126	100.7706451416016	-970.0501708984377	-338.6015625000001	791.3979492187502	-561.6965332031251	-265.3268737792969	756.7801513671876	-590.7076416015626	-304.7947998046876	665.5599365234376	-575.0868530273439	-319.7533569335938	506.0334777832032	-620.3546142578126	-286.4781494140626	330.5832214355469	-695.5519409179689	-348.0023803710938	250.0213775634766	-648.8960571289064	-313.9163513183594	248.3700256347657	-680.9626464843751	-325.2891845703126	213.1433258056641	-727.2752075195314	-392.5475463867189	127.8399200439453	-692.4247436523439	-373.4708862304688	141.6828765869141	-766.0750732421876	-456.8120727539064	107.1604843139649	-746.8397216796876	-256.1322937011719	60.7097511291504	-776.6679687500002	-248.3431243896485	60.05383300781251	-729.3150634765626	-291.9635925292969	46.16073608398438	-677.2111816406251	-266.2468566894532	1719.882568359375	-652.6561279296876	-289.9114074707032	748.7932739257814	-569.1481933593751	nan	nan	nan	
410	2.045	-392.5342712402345	1685.454833984375	-796.269470214844	-397.3889770507814	1680.503784179688	-656.5539550781251	-420.040496826172	1505.1494140625	-710.7515258789064	-460.1962280273439	1217.669189453125	-706.7412719726564	-283.7579040527344	1463.515502929688	-720.4466552734376	-348.9849853515626	1503.06982421875	-857.417663574219	-224.5991210937501	1471.550903320313	-913.1079711914065	-199.7949676513672	1465.419311523438	-871.4302978515627	-158.1432342529297	1467.30322265625	-915.0388793945315	-88.14399719238283	1436.775390625	-948.8027954101565	-90.36502075195314	1378.437255859375	-934.8739013671877	159.419189453125	1431.431396484375	-855.4722290039065	158.4678497314453	1437.1904296875	-922.895690917969	230.3940429687501	1446.094360351563	-849.7401123046877	-326.8871459960938	1502.677856445313	-588.2420043945314	-206.0252227783204	1434.531982421875	-489.372772216797	-181.7110900878907	1460.702514648438	-521.9228515625001	-136.973373413086	1430.834594726563	-488.8328552246095	-61.35389328002931	1429.507446289063	-501.0644836425782	169.322265625	1443.94677734375	-599.9914550781251	186.38134765625	1450.074096679688	-535.9531860351564	255.6152954101563	1457.844604492188	-608.5143432617189	-310.5256347656251	1016.901184082031	-834.2014160156252	-301.9945373535157	993.3690185546877	-624.5502929687501	-464.5139160156251	1083.89404296875	-714.3925781250001	-471.7918701171876	1053.793701171875	-744.7862548828126	-467.8317260742189	1050.342651367188	-686.9352416992189	-297.4578857421876	786.561950683594	-941.3554687500002	-230.1514892578126	733.6943969726564	-949.498962402344	-190.7666168212891	754.3647460937501	-932.2791137695315	-231.4580535888672	672.2119750976564	-947.6132812500002	-204.9367065429688	582.6850585937501	-941.5212402343752	-177.4736633300782	437.7105712890626	-921.705993652344	-248.8348083496094	412.4840393066407	-966.545837402344	-211.6110839843751	399.0777587890626	-948.743347167969	-229.5622711181641	320.4904479980469	-916.7194824218752	-327.9647827148438	212.8904266357422	-933.370788574219	-300.5592651367188	212.5306701660157	-855.653747558594	-398.2989501953126	194.1178894042969	-875.7202758789065	-204.6608123779297	106.9812088012696	-888.6551513671877	-200.6621398925782	109.5614776611328	-926.227966308594	-257.1284484863282	100.7518768310547	-970.4241333007815	-339.0724182128907	791.1997680664065	-561.6663208007814	-265.5382995605469	756.8186035156251	-590.7316284179689	-304.8168945312501	665.4332275390626	-575.1679077148439	-319.5798339843751	506.0120849609376	-620.3436279296876	-286.3299255371094	330.5490722656251	-695.5991821289064	-347.8480224609376	249.9877166748047	-648.9434204101564	-313.7495727539063	248.3845367431641	-680.9642333984376	-325.2321166992188	213.1657714843751	-727.2739257812501	-392.6136779785157	127.8881378173828	-692.3866577148439	-374.0050659179688	142.2067565917969	-766.4515991210939	-456.7983398437501	107.1306076049805	-746.8374023437501	-256.0640869140626	60.88855361938478	-776.6315917968752	-248.3341522216797	60.09080886840822	-729.2918090820314	-291.9422302246094	46.09885787963868	-677.2134399414064	-265.8741760253907	1719.74169921875	-652.1168212890626	-290.2291259765626	748.7414550781251	-569.1437377929689	nan	nan	nan	
411	2.05	-392.2036743164064	1685.345581054688	-795.668395996094	-396.8836975097657	1680.365600585938	-655.8984375000001	-420.0355834960939	1505.071533203125	-710.2213745117189	-460.4015502929689	1217.684448242188	-706.5079345703126	-283.3714904785157	1463.030883789063	-720.0001220703126	-348.6116333007813	1503.05908203125	-856.8912353515627	-224.3493347167969	1471.399658203125	-912.6617431640627	-199.4571228027344	1465.22607421875	-870.9541625976565	-157.9261169433594	1467.054809570313	-914.6480102539065	-88.00377655029298	1436.492919921875	-948.4473266601565	-90.2979202270508	1378.11328125	-934.5628662109377	159.9510803222657	1430.574829101563	-854.581481933594	158.2498168945313	1436.371337890625	-922.9587402343752	230.6224212646485	1445.258422851563	-849.578796386719	-326.4451904296876	1502.34521484375	-587.6448364257814	-205.7517852783204	1434.123168945313	-488.9447021484376	-181.3642120361328	1460.327880859375	-521.7275390625001	-136.6697692871094	1430.368896484375	-488.395965576172	-61.00919723510744	1428.909301757813	-500.6513671875001	169.8470611572266	1443.02294921875	-603.4762573242189	186.7255554199219	1449.130126953125	-535.8103637695314	256.5840148925782	1457.039428710938	-607.9823608398439	-311.1306457519532	1016.761657714844	-834.208679199219	-302.6231079101563	993.1395263671877	-624.5903930664064	-465.0835266113282	1083.857299804688	-714.3009643554689	-472.2516479492189	1053.729125976563	-744.7616577148439	-468.3956909179689	1050.350341796875	-686.7818603515626	-297.7855529785157	786.7117919921877	-941.6335449218752	-230.4350280761719	734.1976318359376	-949.8540039062502	-191.15185546875	754.9140014648439	-932.6465454101565	-231.5221099853516	672.6033935546876	-947.9926757812502	-204.5060119628907	583.1526489257814	-941.7896728515627	-176.5913543701172	438.2520751953126	-922.2424316406252	-247.9163360595704	412.7800903320314	-967.0434570312502	-210.5479736328126	399.4784545898439	-949.2287597656252	-228.2644958496094	320.8588562011719	-917.1777954101565	-326.0029296875001	212.8340454101563	-933.734802246094	-298.7212219238282	212.6099700927735	-856.2656860351565	-396.4205322265626	194.1089782714844	-876.2512817382815	-202.7714233398438	107.2175903320313	-889.0960693359377	-198.7066345214844	109.6636505126953	-926.801940917969	-255.3053283691407	100.8456039428711	-971.0017089843752	-339.4347839355469	791.1455688476565	-561.7583618164064	-265.9335021972657	756.8067626953126	-590.7788696289064	-304.9061889648438	665.3016357421876	-575.1913452148439	-319.4490661621094	505.9499511718751	-620.4246826171876	-286.2577819824219	330.5838623046876	-695.5890502929689	-347.7663269042969	250.0126037597657	-648.9058837890626	-313.6742248535157	248.3818817138672	-681.0123291015626	-325.1329345703126	213.1593017578126	-727.2974853515626	-392.5968017578126	127.9326171875	-692.3759155273439	-373.2227783203126	141.7035522460938	-765.8195190429689	-456.8605346679689	107.1471862792969	-746.8449096679689	-256.8327331542969	61.11088943481447	-777.0391235351565	-248.2802124023438	60.08124160766603	-729.3324584960939	-292.0346069335938	46.18904876708985	-677.2697143554689	-265.3018493652344	1719.329223632813	-651.4063720703126	-290.4985046386719	748.6940917968751	-569.1944580078126	nan	nan	nan	
